<svg xmlns="http://www.w3.org/2000/svg" width="326.554" height="328.301" viewBox="0 0 326.554 328.301">
  <g id="Change_password_icon" data-name="Change password icon" transform="translate(-1299.229 -224.651)">
    <g id="Group_7" data-name="Group 7" transform="translate(-37.605 -636.587)">
      <path id="Path_71" data-name="Path 71" d="M543.707,660.09a.773.773,0,0,1-.145.464.443.443,0,0,1-.351.191H262.661a.681.681,0,0,1,0-1.31h280.55a.443.443,0,0,1,.351.191A.772.772,0,0,1,543.707,660.09Z" transform="translate(1074.669 491.688)" fill="#ccc"/>
      <circle id="Ellipse_13" data-name="Ellipse 13" cx="118.363" cy="118.363" r="118.363" transform="translate(1359.066 887.123)" fill="#e6e6e6"/>
      <path id="Path_72" data-name="Path 72" d="M559.858,311.739A101.706,101.706,0,0,1,518.75,393.5c-.853.639-1.723,1.261-2.6,1.866a101.864,101.864,0,0,1-116.282,0c-.875-.606-1.745-1.228-2.6-1.866a101.858,101.858,0,0,1,0-163.517c.853-.639,1.723-1.261,2.6-1.866a101.864,101.864,0,0,1,116.282,0c.875.606,1.745,1.228,2.6,1.866A101.706,101.706,0,0,1,559.858,311.739Z" transform="translate(1019.419 693.747)" fill="#fff"/>
      <circle id="Ellipse_14" data-name="Ellipse 14" cx="93.039" cy="93.039" r="93.039" transform="translate(1384.391 912.447)" fill="#83fbcf"/>
      <path id="Path_73" data-name="Path 73" d="M534.952,226.365c-1.411,0-2.812.037-4.207.1a93.036,93.036,0,0,1-3.94,185.619c2.685.233,5.4.359,8.147.359a93.039,93.039,0,1,0,0-186.078Z" transform="translate(942.719 686.342)" opacity="0.2"/>
      <path id="Path_74" data-name="Path 74" d="M539.191,213.892a3.033,3.033,0,0,0-3.028,3.028v13.213a3.028,3.028,0,0,0,6.056,0V216.92A3.033,3.033,0,0,0,539.191,213.892Z" transform="translate(938.513 691.949)" fill="#fff"/>
      <path id="Path_75" data-name="Path 75" d="M640.668,244.853c-.853-.639-1.723-1.261-2.6-1.866a3.026,3.026,0,0,0-2.7,1.316l-7.438,10.917a3.027,3.027,0,0,0,5,3.408l7.438-10.917A3.008,3.008,0,0,0,640.668,244.853Z" transform="translate(897.501 678.874)" fill="#fff"/>
      <path id="Path_76" data-name="Path 76" d="M698.116,335.262a3.024,3.024,0,0,0-3.942-1.663l-12.244,4.971a3.028,3.028,0,0,0,2.279,5.61l12.244-4.971A3.035,3.035,0,0,0,698.116,335.262Z" transform="translate(873.844 638.244)" fill="#fff"/>
      <path id="Path_77" data-name="Path 77" d="M443.377,255.219,435.939,244.3a3.026,3.026,0,0,0-2.7-1.316c-.875.606-1.745,1.228-2.6,1.866a3.008,3.008,0,0,0,.292,2.857l7.438,10.917a3.027,3.027,0,1,0,5-3.408Z" transform="translate(986.047 678.874)" fill="#fff"/>
      <path id="Path_78" data-name="Path 78" d="M385.454,338.571,373.21,333.6a3.028,3.028,0,0,0-2.279,5.61l12.244,4.971a3.028,3.028,0,0,0,2.279-5.61Z" transform="translate(1013.631 638.244)" fill="#fff"/>
      <path id="Path_79" data-name="Path 79" d="M539.191,540.892a3.033,3.033,0,0,0-3.028,3.028v13.213a3.028,3.028,0,0,0,6.056,0V543.92A3.033,3.033,0,0,0,539.191,540.892Z" transform="translate(938.513 544.97)" fill="#fff"/>
      <path id="Path_80" data-name="Path 80" d="M640.376,528.218,632.938,517.3a3.027,3.027,0,0,0-5,3.408l7.438,10.917a3.027,3.027,0,0,0,2.7,1.316c.875-.606,1.745-1.228,2.6-1.866A3.008,3.008,0,0,0,640.376,528.218Z" transform="translate(897.501 556.169)" fill="#fff"/>
      <path id="Path_81" data-name="Path 81" d="M696.454,441.571,684.21,436.6a3.028,3.028,0,0,0-2.279,5.61l12.244,4.971a3.028,3.028,0,1,0,2.279-5.61Z" transform="translate(873.844 591.948)" fill="#fff"/>
      <path id="Path_82" data-name="Path 82" d="M442.578,516.5a3.028,3.028,0,0,0-4.206.8l-7.438,10.917a3.008,3.008,0,0,0-.292,2.857c.853.638,1.723,1.261,2.6,1.866a3.026,3.026,0,0,0,2.7-1.316l7.438-10.917A3.027,3.027,0,0,0,442.578,516.5Z" transform="translate(986.047 556.169)" fill="#fff"/>
      <path id="Path_83" data-name="Path 83" d="M387.116,438.262a3.024,3.024,0,0,0-3.942-1.663l-12.244,4.971a3.028,3.028,0,0,0,2.279,5.61l12.244-4.971a3.035,3.035,0,0,0,1.663-3.947Z" transform="translate(1013.631 591.948)" fill="#fff"/>
      <path id="Path_84" data-name="Path 84" d="M494.665,387.861a6.338,6.338,0,0,1-5.18,7.3l-53.73,9.14a6.331,6.331,0,0,1-2.123-12.483l53.73-9.139A6.338,6.338,0,0,1,494.665,387.861Z" transform="translate(986.969 616.122)" fill="#53d4a4"/>
      <path id="Path_85" data-name="Path 85" d="M598.531,447.7a4.133,4.133,0,0,1-5.839.023l-57.84-57.386a4.129,4.129,0,0,1,5.816-5.862l57.84,57.386a4.133,4.133,0,0,1,.023,5.839Z" transform="translate(939.652 615.816)" fill="#53d4a4"/>
      <circle id="Ellipse_15" data-name="Ellipse 15" cx="7.157" cy="7.157" r="7.157" transform="translate(1470.274 998.329)" fill="#fff"/>
      <path id="Path_88" data-name="Path 88" d="M619.842,580.847a3.033,3.033,0,0,0-1.164,4.121L636.153,616.2a3.028,3.028,0,1,0,5.285-2.957l-17.475-31.227A3.033,3.033,0,0,0,619.842,580.847Z" transform="translate(901.598 527.184)" fill="#e6e6e6"/>
      <path id="Path_89" data-name="Path 89" d="M439.152,582.009l-17.475,31.228a3.028,3.028,0,0,0,5.285,2.957l17.475-31.227a3.028,3.028,0,1,0-5.285-2.957Z" transform="translate(990.147 527.186)" fill="#e6e6e6"/>
      <circle id="Ellipse_16" data-name="Ellipse 16" cx="9.359" cy="9.359" r="9.359" transform="translate(1531.932 1132.657)" fill="#e6e6e6"/>
      <circle id="Ellipse_20" data-name="Ellipse 20" cx="9.359" cy="9.359" r="9.359" transform="translate(1405.861 1132.657)" fill="#e6e6e6"/>
      <path id="Path_97" data-name="Path 97" d="M458.7,593.34l.4,1.018h-.4Z" transform="translate(1117.659 595.181)" fill="#2f2e41"/>
    </g>
    <g id="Group_6" data-name="Group 6" transform="translate(-8582.628 -906.488)">
      <circle id="Ellipse_11" data-name="Ellipse 11" cx="58.012" cy="58.012" r="58.012" transform="translate(10092.388 1131.139)" fill="#3ac793"/>
      <path id="Path_67" data-name="Path 67" d="M925.74,273.328H877.672a3.318,3.318,0,0,1-3.315-3.315V241.008a3.319,3.319,0,0,1,3.315-3.315H925.74a3.318,3.318,0,0,1,3.315,3.315v29.006a3.318,3.318,0,0,1-3.315,3.315Zm-48.067-32.321v29.006h48.069l0-29.006Z" transform="translate(9248.693 941.1)" fill="#fff"/>
      <path id="Path_68" data-name="Path 68" d="M920.773,232.156H890.938V218.9c0-9.6,6.274-16.575,14.917-16.575s14.917,6.971,14.917,16.575Zm-26.52-3.315h23.2V218.9c0-7.807-4.771-13.26-11.6-13.26s-11.6,5.453-11.6,13.26Z" transform="translate(9244.544 949.951)" fill="#fff"/>
      <circle id="Ellipse_12" data-name="Ellipse 12" cx="3.315" cy="3.315" r="3.315" transform="translate(10147.085 1192.466)" fill="#fff"/>
    </g>
  </g>
</svg>
