<svg xmlns="http://www.w3.org/2000/svg" width="59" height="59" viewBox="0 0 59 59">
  <path id="Icon_awesome-user-circle" data-name="Icon awesome-user-circle" d="M29.5.563A29.5,29.5,0,1,0,59,30.063,29.495,29.495,0,0,0,29.5.563Zm0,11.419A10.468,10.468,0,1,1,19.032,22.45,10.468,10.468,0,0,1,29.5,11.982Zm0,40.919a22.794,22.794,0,0,1-17.426-8.112A13.262,13.262,0,0,1,23.79,37.675a2.911,2.911,0,0,1,.845.131,15.749,15.749,0,0,0,4.865.821,15.69,15.69,0,0,0,4.865-.821,2.911,2.911,0,0,1,.845-.131,13.262,13.262,0,0,1,11.717,7.113A22.794,22.794,0,0,1,29.5,52.9Z" transform="translate(0 -0.563)" fill="#8ccffc"/>
</svg>
